<svg width="24" height="24" viewBox="0 0 24 24" fill="none" xmlns="http://www.w3.org/2000/svg">
<path d="M8 11H16V13H8V11ZM20.1 12H22C22 9.24 19.76 7 17 7H13V8.9H17C18.71 8.9 20.1 10.29 20.1 12ZM3.9 12C3.9 10.29 5.29 8.9 7 8.9H11V7H7C4.24 7 2 9.24 2 12C2 14.76 4.24 17 7 17H11V15.1H7C5.29 15.1 3.9 13.71 3.9 12ZM19 12H17V15H14V17H17V20H19V17H22V15H19V12Z" fill="url(#paint0_linear)"/>
<defs>
<linearGradient id="paint0_linear" x1="10.0148" y1="7" x2="20.2456" y2="12.8256" gradientUnits="userSpaceOnUse">
<stop stop-color="#B6ABA7"/>
<stop offset="1" stop-color="#B6ABA7" stop-opacity="0.6"/>
</linearGradient>
</defs>
</svg>
