<svg width="24" height="24" viewBox="0 0 24 24" fill="none" xmlns="http://www.w3.org/2000/svg">
<path d="M8 11H16V13H8V11ZM20.1 12H22C22 9.24 19.76 7 17 7H13V8.9H17C18.71 8.9 20.1 10.29 20.1 12ZM3.9 12C3.9 10.29 5.29 8.9 7 8.9H11V7H7C4.24 7 2 9.24 2 12C2 14.76 4.24 17 7 17H11V15.1H7C5.29 15.1 3.9 13.71 3.9 12ZM19 12H17V15H14V17H17V20H19V17H22V15H19V12Z" fill="white"/>
<path d="M8 11H16V13H8V11ZM20.1 12H22C22 9.24 19.76 7 17 7H13V8.9H17C18.71 8.9 20.1 10.29 20.1 12ZM3.9 12C3.9 10.29 5.29 8.9 7 8.9H11V7H7C4.24 7 2 9.24 2 12C2 14.76 4.24 17 7 17H11V15.1H7C5.29 15.1 3.9 13.71 3.9 12ZM19 12H17V15H14V17H17V20H19V17H22V15H19V12Z" fill="#F5E6D1"/>
<path d="M8 11H16V13H8V11ZM20.1 12H22C22 9.24 19.76 7 17 7H13V8.9H17C18.71 8.9 20.1 10.29 20.1 12ZM3.9 12C3.9 10.29 5.29 8.9 7 8.9H11V7H7C4.24 7 2 9.24 2 12C2 14.76 4.24 17 7 17H11V15.1H7C5.29 15.1 3.9 13.71 3.9 12ZM19 12H17V15H14V17H17V20H19V17H22V15H19V12Z" fill="url(#paint0_linear)"/>
<defs>
<linearGradient id="paint0_linear" x1="8.0596" y1="10.9" x2="17.5109" y2="27.1898" gradientUnits="userSpaceOnUse">
<stop stop-color="#FDDDB1"/>
<stop offset="0.976143" stop-color="#45547A"/>
</linearGradient>
</defs>
</svg>
