<svg width="16" height="16" viewBox="0 0 16 16" fill="none" xmlns="http://www.w3.org/2000/svg">
<path d="M0.201097 0.61273C0.469225 0.350556 0.903948 0.350556 1.17208 0.61273L15.7368 14.854C16.0049 15.1161 16.0049 15.5412 15.7368 15.8034C15.4687 16.0655 15.0339 16.0655 14.7658 15.8034L0.201097 1.56214C-0.0670322 1.29997 -0.0670322 0.874904 0.201097 0.61273Z" fill="white"/>
<path d="M0.201097 0.61273C0.469225 0.350556 0.903948 0.350556 1.17208 0.61273L15.7368 14.854C16.0049 15.1161 16.0049 15.5412 15.7368 15.8034C15.4687 16.0655 15.0339 16.0655 14.7658 15.8034L0.201097 1.56214C-0.0670322 1.29997 -0.0670322 0.874904 0.201097 0.61273Z" fill="#F5E6D1"/>
<path d="M0.201097 0.61273C0.469225 0.350556 0.903948 0.350556 1.17208 0.61273L15.7368 14.854C16.0049 15.1161 16.0049 15.5412 15.7368 15.8034C15.4687 16.0655 15.0339 16.0655 14.7658 15.8034L0.201097 1.56214C-0.0670322 1.29997 -0.0670322 0.874904 0.201097 0.61273Z" fill="url(#paint0_linear)"/>
<path d="M15.7989 0.19663C16.067 0.458804 16.067 0.883872 15.7989 1.14605L1.2342 15.3873C0.966068 15.6494 0.531345 15.6494 0.263216 15.3873C-0.00491271 15.1251 -0.00491279 14.7 0.263216 14.4379L14.8279 0.19663C15.0961 -0.0655434 15.5308 -0.0655434 15.7989 0.19663Z" fill="white"/>
<path d="M15.7989 0.19663C16.067 0.458804 16.067 0.883872 15.7989 1.14605L1.2342 15.3873C0.966068 15.6494 0.531345 15.6494 0.263216 15.3873C-0.00491271 15.1251 -0.00491279 14.7 0.263216 14.4379L14.8279 0.19663C15.0961 -0.0655434 15.5308 -0.0655434 15.7989 0.19663Z" fill="#F5E6D1"/>
<path d="M15.7989 0.19663C16.067 0.458804 16.067 0.883872 15.7989 1.14605L1.2342 15.3873C0.966068 15.6494 0.531345 15.6494 0.263216 15.3873C-0.00491271 15.1251 -0.00491279 14.7 0.263216 14.4379L14.8279 0.19663C15.0961 -0.0655434 15.5308 -0.0655434 15.7989 0.19663Z" fill="url(#paint1_linear)"/>
<defs>
<linearGradient id="paint0_linear" x1="4.84768" y1="4.8" x2="18.1607" y2="19.7146" gradientUnits="userSpaceOnUse">
<stop stop-color="#FDDDB1"/>
<stop offset="0.976143" stop-color="#45547A"/>
</linearGradient>
<linearGradient id="paint1_linear" x1="4.84768" y1="4.8" x2="18.1607" y2="19.7146" gradientUnits="userSpaceOnUse">
<stop stop-color="#FDDDB1"/>
<stop offset="0.976143" stop-color="#45547A"/>
</linearGradient>
</defs>
</svg>
