<svg width="16" height="16" viewBox="0 0 16 16" fill="none" xmlns="http://www.w3.org/2000/svg">
<path d="M14.2795 1.50176C12.2771 -0.500586 9.03067 -0.500586 7.0283 1.50176C5.43902 3.09104 5.11139 5.46401 6.04498 7.37666L4.61714 8.8045C4.60653 8.81512 4.59816 8.82775 4.59251 8.84165C4.58686 8.85555 4.58406 8.87044 4.58427 8.88544L4.59686 9.77772C4.59707 9.79273 4.59427 9.80762 4.58862 9.82152C4.58298 9.83543 4.5746 9.84805 4.56398 9.85866L3.81777 10.6049C3.80468 10.618 3.78856 10.6276 3.77085 10.633C3.75314 10.6383 3.73437 10.6392 3.71623 10.6355L3.00098 10.4915C2.98284 10.4878 2.96408 10.4887 2.94637 10.4941C2.92866 10.4994 2.91254 10.5091 2.89945 10.5221L2.10761 11.314C2.08796 11.3337 2.0763 11.3599 2.07489 11.3877L2.02933 12.2836C2.02856 12.2986 2.02479 12.3133 2.01823 12.3268C2.01167 12.3403 2.00247 12.3524 1.99115 12.3623C1.97984 12.3722 1.96666 12.3797 1.95238 12.3844C1.93811 12.3892 1.92303 12.391 1.90805 12.3897L1.15036 12.3273C1.13412 12.326 1.11779 12.3282 1.1025 12.3338C1.0872 12.3394 1.07331 12.3483 1.0618 12.3598L0.372734 13.0489C0.362307 13.0593 0.354035 13.0717 0.348392 13.0853C0.342748 13.0989 0.339844 13.1135 0.339844 13.1283C0.339844 13.143 0.342748 13.1576 0.348392 13.1712C0.354035 13.1848 0.362307 13.1972 0.372734 13.2076L0.714546 13.5494C0.724973 13.5598 0.733244 13.5722 0.738888 13.5858C0.744531 13.5994 0.747436 13.614 0.747436 13.6288C0.747436 13.6435 0.744531 13.6581 0.738888 13.6717C0.733244 13.6853 0.724973 13.6977 0.714546 13.7081L0.453952 13.9687C0.433553 13.9891 0.421792 14.0166 0.421109 14.0455L0.385296 15.5814C0.384943 15.5966 0.387671 15.6117 0.393317 15.6258C0.398962 15.6398 0.407407 15.6526 0.41814 15.6634L0.661671 15.9069C0.684171 15.9294 0.71514 15.9413 0.74689 15.9396L2.23817 15.8618C2.26588 15.8604 2.29207 15.8487 2.31167 15.8291L8.40458 9.73619C10.3172 10.6698 12.6902 10.3422 14.2795 8.75288C16.2819 6.75057 16.2819 3.5041 14.2795 1.50176ZM13.5354 3.89044C13.0812 4.34457 12.3449 4.34457 11.8908 3.89044C11.4367 3.43632 11.4367 2.70001 11.8908 2.24588C12.3449 1.79176 13.0812 1.79176 13.5354 2.24588C13.9895 2.70001 13.9895 3.43632 13.5354 3.89044Z" fill="white"/>
<path d="M14.2795 1.50176C12.2771 -0.500586 9.03067 -0.500586 7.0283 1.50176C5.43902 3.09104 5.11139 5.46401 6.04498 7.37666L4.61714 8.8045C4.60653 8.81512 4.59816 8.82775 4.59251 8.84165C4.58686 8.85555 4.58406 8.87044 4.58427 8.88544L4.59686 9.77772C4.59707 9.79273 4.59427 9.80762 4.58862 9.82152C4.58298 9.83543 4.5746 9.84805 4.56398 9.85866L3.81777 10.6049C3.80468 10.618 3.78856 10.6276 3.77085 10.633C3.75314 10.6383 3.73437 10.6392 3.71623 10.6355L3.00098 10.4915C2.98284 10.4878 2.96408 10.4887 2.94637 10.4941C2.92866 10.4994 2.91254 10.5091 2.89945 10.5221L2.10761 11.314C2.08796 11.3337 2.0763 11.3599 2.07489 11.3877L2.02933 12.2836C2.02856 12.2986 2.02479 12.3133 2.01823 12.3268C2.01167 12.3403 2.00247 12.3524 1.99115 12.3623C1.97984 12.3722 1.96666 12.3797 1.95238 12.3844C1.93811 12.3892 1.92303 12.391 1.90805 12.3897L1.15036 12.3273C1.13412 12.326 1.11779 12.3282 1.1025 12.3338C1.0872 12.3394 1.07331 12.3483 1.0618 12.3598L0.372734 13.0489C0.362307 13.0593 0.354035 13.0717 0.348392 13.0853C0.342748 13.0989 0.339844 13.1135 0.339844 13.1283C0.339844 13.143 0.342748 13.1576 0.348392 13.1712C0.354035 13.1848 0.362307 13.1972 0.372734 13.2076L0.714546 13.5494C0.724973 13.5598 0.733244 13.5722 0.738888 13.5858C0.744531 13.5994 0.747436 13.614 0.747436 13.6288C0.747436 13.6435 0.744531 13.6581 0.738888 13.6717C0.733244 13.6853 0.724973 13.6977 0.714546 13.7081L0.453952 13.9687C0.433553 13.9891 0.421792 14.0166 0.421109 14.0455L0.385296 15.5814C0.384943 15.5966 0.387671 15.6117 0.393317 15.6258C0.398962 15.6398 0.407407 15.6526 0.41814 15.6634L0.661671 15.9069C0.684171 15.9294 0.71514 15.9413 0.74689 15.9396L2.23817 15.8618C2.26588 15.8604 2.29207 15.8487 2.31167 15.8291L8.40458 9.73619C10.3172 10.6698 12.6902 10.3422 14.2795 8.75288C16.2819 6.75057 16.2819 3.5041 14.2795 1.50176ZM13.5354 3.89044C13.0812 4.34457 12.3449 4.34457 11.8908 3.89044C11.4367 3.43632 11.4367 2.70001 11.8908 2.24588C12.3449 1.79176 13.0812 1.79176 13.5354 2.24588C13.9895 2.70001 13.9895 3.43632 13.5354 3.89044Z" fill="#F5E6D1"/>
<path d="M14.2795 1.50176C12.2771 -0.500586 9.03067 -0.500586 7.0283 1.50176C5.43902 3.09104 5.11139 5.46401 6.04498 7.37666L4.61714 8.8045C4.60653 8.81512 4.59816 8.82775 4.59251 8.84165C4.58686 8.85555 4.58406 8.87044 4.58427 8.88544L4.59686 9.77772C4.59707 9.79273 4.59427 9.80762 4.58862 9.82152C4.58298 9.83543 4.5746 9.84805 4.56398 9.85866L3.81777 10.6049C3.80468 10.618 3.78856 10.6276 3.77085 10.633C3.75314 10.6383 3.73437 10.6392 3.71623 10.6355L3.00098 10.4915C2.98284 10.4878 2.96408 10.4887 2.94637 10.4941C2.92866 10.4994 2.91254 10.5091 2.89945 10.5221L2.10761 11.314C2.08796 11.3337 2.0763 11.3599 2.07489 11.3877L2.02933 12.2836C2.02856 12.2986 2.02479 12.3133 2.01823 12.3268C2.01167 12.3403 2.00247 12.3524 1.99115 12.3623C1.97984 12.3722 1.96666 12.3797 1.95238 12.3844C1.93811 12.3892 1.92303 12.391 1.90805 12.3897L1.15036 12.3273C1.13412 12.326 1.11779 12.3282 1.1025 12.3338C1.0872 12.3394 1.07331 12.3483 1.0618 12.3598L0.372734 13.0489C0.362307 13.0593 0.354035 13.0717 0.348392 13.0853C0.342748 13.0989 0.339844 13.1135 0.339844 13.1283C0.339844 13.143 0.342748 13.1576 0.348392 13.1712C0.354035 13.1848 0.362307 13.1972 0.372734 13.2076L0.714546 13.5494C0.724973 13.5598 0.733244 13.5722 0.738888 13.5858C0.744531 13.5994 0.747436 13.614 0.747436 13.6288C0.747436 13.6435 0.744531 13.6581 0.738888 13.6717C0.733244 13.6853 0.724973 13.6977 0.714546 13.7081L0.453952 13.9687C0.433553 13.9891 0.421792 14.0166 0.421109 14.0455L0.385296 15.5814C0.384943 15.5966 0.387671 15.6117 0.393317 15.6258C0.398962 15.6398 0.407407 15.6526 0.41814 15.6634L0.661671 15.9069C0.684171 15.9294 0.71514 15.9413 0.74689 15.9396L2.23817 15.8618C2.26588 15.8604 2.29207 15.8487 2.31167 15.8291L8.40458 9.73619C10.3172 10.6698 12.6902 10.3422 14.2795 8.75288C16.2819 6.75057 16.2819 3.5041 14.2795 1.50176ZM13.5354 3.89044C13.0812 4.34457 12.3449 4.34457 11.8908 3.89044C11.4367 3.43632 11.4367 2.70001 11.8908 2.24588C12.3449 1.79176 13.0812 1.79176 13.5354 2.24588C13.9895 2.70001 13.9895 3.43632 13.5354 3.89044Z" fill="url(#paint0_linear)"/>
<defs>
<linearGradient id="paint0_linear" x1="4.93917" y1="-8.57236e-07" x2="19.3357" y2="15.6673" gradientUnits="userSpaceOnUse">
<stop stop-color="#FDDDB1"/>
<stop offset="0.976143" stop-color="#45547A"/>
</linearGradient>
</defs>
</svg>
