<svg width="16" height="11" viewBox="0 0 16 11" fill="none" xmlns="http://www.w3.org/2000/svg">
<path d="M3.516 4C4.20823 4 4.88492 4.20527 5.4605 4.58986C6.03607 4.97444 6.48467 5.52107 6.74958 6.16061C7.01449 6.80015 7.0838 7.50388 6.94875 8.18282C6.8137 8.86175 6.48036 9.48539 5.99087 9.97487C5.50139 10.4644 4.87775 10.7977 4.19882 10.9327C3.51988 11.0678 2.81615 10.9985 2.17661 10.7336C1.53707 10.4687 0.990441 10.0201 0.605856 9.4445C0.221271 8.86892 0.016 8.19223 0.016 7.5L0 7C0 5.14348 0.737498 3.36301 2.05025 2.05025C3.36301 0.737498 5.14348 0 7 0V2C6.3431 1.99823 5.69237 2.12671 5.08543 2.378C4.4785 2.62929 3.9274 2.9984 3.464 3.464C3.2839 3.64377 3.11775 3.83699 2.967 4.042C3.146 4.014 3.329 3.999 3.515 3.999L3.516 4ZM12.516 4C13.2082 4 13.8849 4.20527 14.4605 4.58986C15.0361 4.97444 15.4847 5.52107 15.7496 6.16061C16.0145 6.80015 16.0838 7.50388 15.9487 8.18282C15.8137 8.86175 15.4804 9.48539 14.9909 9.97487C14.5014 10.4644 13.8777 10.7977 13.1988 10.9327C12.5199 11.0678 11.8161 10.9985 11.1766 10.7336C10.5371 10.4687 9.99044 10.0201 9.60586 9.4445C9.22127 8.86892 9.016 8.19223 9.016 7.5L9 7C9 5.14348 9.7375 3.36301 11.0503 2.05025C12.363 0.737498 14.1435 0 16 0V2C15.3431 1.99823 14.6924 2.12671 14.0854 2.378C13.4785 2.62929 12.9274 2.9984 12.464 3.464C12.2839 3.64377 12.1177 3.83699 11.967 4.042C12.146 4.014 12.329 3.999 12.516 3.999V4Z" fill="white"/>
</svg>
