<svg width="109" height="43" viewBox="0 0 109 43" fill="none" xmlns="http://www.w3.org/2000/svg">
<path fill-rule="evenodd" clip-rule="evenodd" d="M0.530463 38.3717L1.05128 38.1875V35.8705L1.58174 35.5505V41.9878H0V40.4173H0.530463V38.3717ZM3.09597 37.4022L3.61679 37.1889V34.2127L4.14726 33.8346V42.0169H2.56551V40.2622L3.09597 40.2137V37.4022ZM5.66149 36.2776L6.1823 36.0256V32.2252L6.75135 31.7696V42.0169H5.13102V39.9907L5.66149 39.9131V36.2776ZM8.227 34.9785L8.74782 34.6877V29.8403L9.27828 29.3168V42.0169H7.71583V39.5835L8.24629 39.4866L8.227 34.9785ZM10.7925 33.4565L11.3133 33.1172V27.1452L11.8438 26.5344V42.0169H10.262V39.0309L10.7925 38.8952V33.4565ZM13.358 31.692L13.8885 31.2945V23.9944L14.4093 23.277V42.0169H12.8372V38.3135L13.358 38.139V31.692ZM15.9235 29.6174L16.454 29.152V20.2329L16.9748 19.3894V42.0169H15.4317V37.3828L15.9525 37.1599L15.9235 29.6174ZM18.489 27.1452L19.0195 26.5732V15.7054C19.1931 15.3467 19.3764 14.9977 19.5403 14.639V42.0169H17.9682V36.2001L18.489 35.9286V27.1452ZM21.0546 24.0332L21.585 23.277V9.85953C21.7683 9.37479 21.9419 8.89006 22.1058 8.39563V42.0169H20.5337V34.7265L21.0546 34.3775V24.0332ZM24.6714 42.0266H23.1475V32.836L23.6683 32.39V19.7191C23.8612 19.3216 24.0348 18.9338 24.1988 18.5363V0H24.7196L24.6714 42.0266Z" fill="white"/>
<path fill-rule="evenodd" clip-rule="evenodd" d="M0.530463 38.3717L1.05128 38.1875V35.8705L1.58174 35.5505V41.9878H0V40.4173H0.530463V38.3717ZM3.09597 37.4022L3.61679 37.1889V34.2127L4.14726 33.8346V42.0169H2.56551V40.2622L3.09597 40.2137V37.4022ZM5.66149 36.2776L6.1823 36.0256V32.2252L6.75135 31.7696V42.0169H5.13102V39.9907L5.66149 39.9131V36.2776ZM8.227 34.9785L8.74782 34.6877V29.8403L9.27828 29.3168V42.0169H7.71583V39.5835L8.24629 39.4866L8.227 34.9785ZM10.7925 33.4565L11.3133 33.1172V27.1452L11.8438 26.5344V42.0169H10.262V39.0309L10.7925 38.8952V33.4565ZM13.358 31.692L13.8885 31.2945V23.9944L14.4093 23.277V42.0169H12.8372V38.3135L13.358 38.139V31.692ZM15.9235 29.6174L16.454 29.152V20.2329L16.9748 19.3894V42.0169H15.4317V37.3828L15.9525 37.1599L15.9235 29.6174ZM18.489 27.1452L19.0195 26.5732V15.7054C19.1931 15.3467 19.3764 14.9977 19.5403 14.639V42.0169H17.9682V36.2001L18.489 35.9286V27.1452ZM21.0546 24.0332L21.585 23.277V9.85953C21.7683 9.37479 21.9419 8.89006 22.1058 8.39563V42.0169H20.5337V34.7265L21.0546 34.3775V24.0332ZM24.6714 42.0266H23.1475V32.836L23.6683 32.39V19.7191C23.8612 19.3216 24.0348 18.9338 24.1988 18.5363V0H24.7196L24.6714 42.0266Z" fill="#333657"/>
<path d="M52.0568 27.2767V15.462H58.6245V17.095H53.9664V20.0397H58.6245V21.7174H53.9664V25.492H58.6245V27.2767H52.0568ZM63.3004 27.2767V15.462H65.8703C68.7526 15.462 71.4654 15.5602 72.7593 18.5674C73.1141 19.4547 73.2842 20.4051 73.259 21.3604C73.2748 22.3117 73.0956 23.2562 72.7325 24.1356C71.5368 26.9465 69.1274 27.2767 66.3879 27.2767H63.3004ZM65.2278 25.492H66.8341C68.708 25.492 70.2161 25.2511 70.9746 23.3057C71.2105 22.6755 71.3256 22.0065 71.3137 21.3337C71.3269 20.6607 71.2118 19.9914 70.9746 19.3616C70.1893 17.3359 68.5563 17.1664 66.611 17.1664H65.2278V25.492ZM80.8439 27.6783L75.588 15.4531H77.5779L80.255 21.6995C80.5285 22.3044 80.7408 22.9352 80.8886 23.5824C81.0418 22.9367 81.2539 22.3065 81.5221 21.6995L84.1992 15.4531H86.1713L80.8439 27.6783ZM89.3837 27.2767V15.462H95.9514V17.095H91.2934V20.0397H95.9514V21.7174H91.2934V25.492H95.9514V27.2767H89.3837ZM99.2799 27.2767L103.09 21.1195L99.7171 15.5066H101.725L103.42 18.3532C103.652 18.728 103.849 19.1295 104.045 19.5133C104.25 19.1295 104.464 18.7458 104.696 18.3711L106.481 15.4709H108.444L105.009 21.0303L108.703 27.2767H106.597L104.625 23.9393C104.411 23.5556 104.206 23.1451 104 22.7525C103.804 23.1451 103.59 23.5378 103.358 23.9125L101.297 27.2767H99.2799ZM36.3604 27.2767V15.0069L43.8115 22.1903C44.2625 22.6427 44.6885 23.1193 45.0875 23.6181V15.462H46.8722V27.6872L39.2516 20.3699C38.8338 19.9656 38.4545 19.5235 38.1183 19.0492V27.2767H36.3604Z" fill="white"/>
<path d="M52.0568 27.2767V15.462H58.6245V17.095H53.9664V20.0397H58.6245V21.7174H53.9664V25.492H58.6245V27.2767H52.0568ZM63.3004 27.2767V15.462H65.8703C68.7526 15.462 71.4654 15.5602 72.7593 18.5674C73.1141 19.4547 73.2842 20.4051 73.259 21.3604C73.2748 22.3117 73.0956 23.2562 72.7325 24.1356C71.5368 26.9465 69.1274 27.2767 66.3879 27.2767H63.3004ZM65.2278 25.492H66.8341C68.708 25.492 70.2161 25.2511 70.9746 23.3057C71.2105 22.6755 71.3256 22.0065 71.3137 21.3337C71.3269 20.6607 71.2118 19.9914 70.9746 19.3616C70.1893 17.3359 68.5563 17.1664 66.611 17.1664H65.2278V25.492ZM80.8439 27.6783L75.588 15.4531H77.5779L80.255 21.6995C80.5285 22.3044 80.7408 22.9352 80.8886 23.5824C81.0418 22.9367 81.2539 22.3065 81.5221 21.6995L84.1992 15.4531H86.1713L80.8439 27.6783ZM89.3837 27.2767V15.462H95.9514V17.095H91.2934V20.0397H95.9514V21.7174H91.2934V25.492H95.9514V27.2767H89.3837ZM99.2799 27.2767L103.09 21.1195L99.7171 15.5066H101.725L103.42 18.3532C103.652 18.728 103.849 19.1295 104.045 19.5133C104.25 19.1295 104.464 18.7458 104.696 18.3711L106.481 15.4709H108.444L105.009 21.0303L108.703 27.2767H106.597L104.625 23.9393C104.411 23.5556 104.206 23.1451 104 22.7525C103.804 23.1451 103.59 23.5378 103.358 23.9125L101.297 27.2767H99.2799ZM36.3604 27.2767V15.0069L43.8115 22.1903C44.2625 22.6427 44.6885 23.1193 45.0875 23.6181V15.462H46.8722V27.6872L39.2516 20.3699C38.8338 19.9656 38.4545 19.5235 38.1183 19.0492V27.2767H36.3604Z" fill="#333657"/>
<path d="M106.722 34.2477V33.5784H108.703C108.726 33.9332 108.674 34.2888 108.551 34.6223C108.429 34.9558 108.237 35.2599 107.989 35.5148C107.772 35.7203 107.515 35.88 107.234 35.9842C106.954 36.0884 106.655 36.1352 106.356 36.1216C106.054 36.1336 105.752 36.0818 105.471 35.9696C105.189 35.8574 104.935 35.6872 104.723 35.4702C104.49 35.2361 104.307 34.9573 104.184 34.6507C104.062 34.344 104.002 34.0157 104.009 33.6855C104.008 33.3406 104.071 32.9984 104.197 32.6771C104.315 32.3883 104.488 32.1247 104.705 31.9008C104.932 31.6762 105.203 31.5002 105.5 31.3832C105.863 31.2385 106.253 31.1724 106.643 31.1893C107.034 31.2062 107.417 31.3058 107.766 31.4814C108.083 31.6518 108.35 31.9007 108.543 32.2042L107.963 32.6147C107.81 32.3909 107.609 32.2048 107.374 32.0703C107.103 31.9142 106.793 31.8398 106.481 31.8562C106.246 31.8513 106.012 31.8929 105.793 31.9787C105.574 32.0644 105.374 32.1926 105.205 32.3559C105.042 32.5283 104.914 32.7315 104.83 32.9538C104.741 33.1903 104.695 33.4414 104.697 33.6944C104.685 34.1775 104.865 34.6455 105.196 34.9973C105.351 35.1583 105.539 35.2845 105.747 35.3676C105.955 35.4507 106.177 35.4887 106.401 35.4791C106.599 35.4845 106.796 35.4493 106.981 35.3756C107.165 35.302 107.332 35.1914 107.472 35.0508C107.698 34.8364 107.84 34.5485 107.873 34.2388L106.722 34.2477ZM96.1835 36.0324H95.4518V30.9549L98.9409 34.5957V31.2762H99.6726V36.3625L96.1835 32.7218V36.0324ZM90.1513 31.2405H90.8919V36.0324H90.1513V31.2405ZM86.1 31.9276H84.9935V36.0324H84.2618V31.9276H83.1552V31.2405H86.1V31.9276ZM77.6316 31.2405H78.3633V35.3453H79.7732V36.0324H77.6316V31.2405ZM69.5023 31.2405H70.243V34.1317C70.2215 34.4138 70.2738 34.6967 70.3947 34.9526C70.4832 35.0962 70.6058 35.2157 70.7516 35.3007C70.9124 35.4002 71.0978 35.4529 71.287 35.4529C71.4762 35.4529 71.6616 35.4002 71.8224 35.3007C71.9661 35.2131 72.0882 35.0941 72.1794 34.9526C72.2941 34.6948 72.3461 34.4135 72.3311 34.1317V31.2762H73.0628V34.3548C73.0801 34.813 72.9203 35.2604 72.6166 35.6041C72.4488 35.7877 72.2428 35.9324 72.0131 36.028C71.7834 36.1236 71.5356 36.1677 71.287 36.1573C71.0376 36.1638 70.7896 36.1179 70.5591 36.0226C70.3285 35.9273 70.1205 35.7847 69.9485 35.6041C69.6448 35.2604 69.485 34.813 69.5023 34.3548V31.2405ZM65.0406 31.9633L64.4516 32.3024C64.4076 32.1869 64.3337 32.0853 64.2374 32.0079C64.0908 31.8903 63.9079 31.8272 63.7199 31.8294C63.6295 31.8228 63.5387 31.8345 63.4529 31.8636C63.367 31.8927 63.2879 31.9387 63.2202 31.999C63.1626 32.0505 63.1168 32.1138 63.086 32.1847C63.0552 32.2555 63.0401 32.3322 63.0417 32.4094C63.0417 32.6504 63.2112 32.8467 63.5593 32.9895L64.0411 33.1858C64.4411 33.2414 64.8026 33.4536 65.0461 33.7758C65.2896 34.0979 65.3951 34.5036 65.3395 34.9036C65.2839 35.3035 65.0717 35.665 64.7495 35.9085C64.4274 36.152 64.0217 36.2575 63.6217 36.2019C63.411 36.211 63.2009 36.1733 63.0065 36.0916C62.8121 36.0098 62.6382 35.886 62.4974 35.729C62.2615 35.4701 62.1173 35.1409 62.0869 34.792L62.8186 34.6314C62.8141 34.8527 62.8831 35.0693 63.0149 35.2471C63.0915 35.3401 63.1885 35.4143 63.2984 35.4638C63.4083 35.5133 63.5281 35.5369 63.6485 35.5327C63.7525 35.536 63.8561 35.518 63.9528 35.4796C64.0495 35.4412 64.1373 35.3833 64.2107 35.3096C64.2874 35.2342 64.3477 35.1438 64.3876 35.0439C64.4275 34.9441 64.4463 34.837 64.4427 34.7295C64.4481 34.6357 64.4333 34.5417 64.3995 34.454C64.3656 34.3663 64.3134 34.2868 64.2464 34.2209C64.1006 34.0867 63.9312 33.9808 63.7467 33.9086L63.2826 33.7123C63.0123 33.6402 62.772 33.4835 62.597 33.2652C62.4221 33.0468 62.3215 32.7783 62.31 32.4987C62.3089 32.3323 62.3416 32.1675 62.406 32.0141C62.4704 31.8608 62.5653 31.722 62.6848 31.6063C62.8224 31.4795 62.9843 31.3817 63.1606 31.3188C63.3369 31.256 63.5241 31.2293 63.711 31.2405C64.0607 31.2258 64.4037 31.3401 64.6747 31.5617C64.8235 31.6827 64.9477 31.8311 65.0406 31.999V31.9633ZM54.3324 36.0324H53.6274V30.9549L57.1165 34.5957V31.2762H57.8482V36.3625L54.3234 32.7218L54.3324 36.0324ZM45.4981 34.9437C45.6629 35.1113 45.8605 35.2429 46.0785 35.3305C46.2966 35.418 46.5304 35.4595 46.7653 35.4523C47.0015 35.4597 47.2367 35.4183 47.4562 35.3308C47.6757 35.2433 47.8749 35.1115 48.0413 34.9437C48.3582 34.5837 48.5329 34.1205 48.5329 33.6409C48.5329 33.1613 48.3582 32.6981 48.0413 32.3381C47.8749 32.1703 47.6757 32.0385 47.4562 31.951C47.2367 31.8635 47.0015 31.8221 46.7653 31.8294C46.5304 31.8223 46.2966 31.8638 46.0785 31.9513C45.8605 32.0388 45.6629 32.1705 45.4981 32.3381C45.1813 32.6981 45.0065 33.1613 45.0065 33.6409C45.0065 34.1205 45.1813 34.5837 45.4981 34.9437ZM44.9806 31.8651C45.3932 31.4342 45.943 31.1603 46.5355 31.0904C47.1281 31.0205 47.7265 31.1589 48.2281 31.482C48.7297 31.805 49.1033 32.2926 49.2848 32.8609C49.4663 33.4293 49.4444 34.0431 49.2228 34.5971C49.0012 35.1511 48.5938 35.6107 48.0703 35.8971C47.5469 36.1836 46.9402 36.2789 46.3541 36.1669C45.7681 36.0549 45.2393 35.7425 44.8584 35.2832C44.4775 34.8239 44.2683 34.2465 44.2667 33.6498C44.261 33.3259 44.3206 33.0042 44.4417 32.7038C44.5627 32.4033 44.743 32.1303 44.9716 31.9008L44.9806 31.8651ZM40.1797 31.4992V32.3916C39.83 32.0529 39.3637 31.8612 38.8769 31.8562C38.641 31.8474 38.406 31.889 38.1875 31.9783C37.969 32.0675 37.772 32.2023 37.6098 32.3737C37.2819 32.73 37.1086 33.2017 37.1279 33.6855C37.1199 33.921 37.1602 34.1557 37.2461 34.3751C37.332 34.5945 37.4618 34.7941 37.6276 34.9616C37.7889 35.1318 37.9844 35.266 38.2012 35.3552C38.4181 35.4444 38.6514 35.4866 38.8858 35.4791C39.3732 35.4726 39.8383 35.2738 40.1797 34.9259V35.8182C39.7811 36.0573 39.3238 36.1809 38.859 36.1752C38.5342 36.1787 38.2119 36.1175 37.911 35.9951C37.6101 35.8727 37.3366 35.6916 37.1064 35.4623C36.8763 35.233 36.6942 34.9601 36.5707 34.6597C36.4472 34.3592 36.3848 34.0371 36.3872 33.7123C36.375 33.3626 36.438 33.0143 36.5719 32.691C36.7058 32.3677 36.9076 32.0769 37.1636 31.8383C37.3969 31.6255 37.6699 31.4607 37.9669 31.3535C38.264 31.2463 38.5793 31.1988 38.8947 31.2137C39.3423 31.1943 39.7858 31.306 40.1708 31.5349L40.1797 31.4992Z" fill="white"/>
<path d="M106.722 34.2477V33.5784H108.703C108.726 33.9332 108.674 34.2888 108.551 34.6223C108.429 34.9558 108.237 35.2599 107.989 35.5148C107.772 35.7203 107.515 35.88 107.234 35.9842C106.954 36.0884 106.655 36.1352 106.356 36.1216C106.054 36.1336 105.752 36.0818 105.471 35.9696C105.189 35.8574 104.935 35.6872 104.723 35.4702C104.49 35.2361 104.307 34.9573 104.184 34.6507C104.062 34.344 104.002 34.0157 104.009 33.6855C104.008 33.3406 104.071 32.9984 104.197 32.6771C104.315 32.3883 104.488 32.1247 104.705 31.9008C104.932 31.6762 105.203 31.5002 105.5 31.3832C105.863 31.2385 106.253 31.1724 106.643 31.1893C107.034 31.2062 107.417 31.3058 107.766 31.4814C108.083 31.6518 108.35 31.9007 108.543 32.2042L107.963 32.6147C107.81 32.3909 107.609 32.2048 107.374 32.0703C107.103 31.9142 106.793 31.8398 106.481 31.8562C106.246 31.8513 106.012 31.8929 105.793 31.9787C105.574 32.0644 105.374 32.1926 105.205 32.3559C105.042 32.5283 104.914 32.7315 104.83 32.9538C104.741 33.1903 104.695 33.4414 104.697 33.6944C104.685 34.1775 104.865 34.6455 105.196 34.9973C105.351 35.1583 105.539 35.2845 105.747 35.3676C105.955 35.4507 106.177 35.4887 106.401 35.4791C106.599 35.4845 106.796 35.4493 106.981 35.3756C107.165 35.302 107.332 35.1914 107.472 35.0508C107.698 34.8364 107.84 34.5485 107.873 34.2388L106.722 34.2477ZM96.1835 36.0324H95.4518V30.9549L98.9409 34.5957V31.2762H99.6726V36.3625L96.1835 32.7218V36.0324ZM90.1513 31.2405H90.8919V36.0324H90.1513V31.2405ZM86.1 31.9276H84.9935V36.0324H84.2618V31.9276H83.1552V31.2405H86.1V31.9276ZM77.6316 31.2405H78.3633V35.3453H79.7732V36.0324H77.6316V31.2405ZM69.5023 31.2405H70.243V34.1317C70.2215 34.4138 70.2738 34.6967 70.3947 34.9526C70.4832 35.0962 70.6058 35.2157 70.7516 35.3007C70.9124 35.4002 71.0978 35.4529 71.287 35.4529C71.4762 35.4529 71.6616 35.4002 71.8224 35.3007C71.9661 35.2131 72.0882 35.0941 72.1794 34.9526C72.2941 34.6948 72.3461 34.4135 72.3311 34.1317V31.2762H73.0628V34.3548C73.0801 34.813 72.9203 35.2604 72.6166 35.6041C72.4488 35.7877 72.2428 35.9324 72.0131 36.028C71.7834 36.1236 71.5356 36.1677 71.287 36.1573C71.0376 36.1638 70.7896 36.1179 70.5591 36.0226C70.3285 35.9273 70.1205 35.7847 69.9485 35.6041C69.6448 35.2604 69.485 34.813 69.5023 34.3548V31.2405ZM65.0406 31.9633L64.4516 32.3024C64.4076 32.1869 64.3337 32.0853 64.2374 32.0079C64.0908 31.8903 63.9079 31.8272 63.7199 31.8294C63.6295 31.8228 63.5387 31.8345 63.4529 31.8636C63.367 31.8927 63.2879 31.9387 63.2202 31.999C63.1626 32.0505 63.1168 32.1138 63.086 32.1847C63.0552 32.2555 63.0401 32.3322 63.0417 32.4094C63.0417 32.6504 63.2112 32.8467 63.5593 32.9895L64.0411 33.1858C64.4411 33.2414 64.8026 33.4536 65.0461 33.7758C65.2896 34.0979 65.3951 34.5036 65.3395 34.9036C65.2839 35.3035 65.0717 35.665 64.7495 35.9085C64.4274 36.152 64.0217 36.2575 63.6217 36.2019C63.411 36.211 63.2009 36.1733 63.0065 36.0916C62.8121 36.0098 62.6382 35.886 62.4974 35.729C62.2615 35.4701 62.1173 35.1409 62.0869 34.792L62.8186 34.6314C62.8141 34.8527 62.8831 35.0693 63.0149 35.2471C63.0915 35.3401 63.1885 35.4143 63.2984 35.4638C63.4083 35.5133 63.5281 35.5369 63.6485 35.5327C63.7525 35.536 63.8561 35.518 63.9528 35.4796C64.0495 35.4412 64.1373 35.3833 64.2107 35.3096C64.2874 35.2342 64.3477 35.1438 64.3876 35.0439C64.4275 34.9441 64.4463 34.837 64.4427 34.7295C64.4481 34.6357 64.4333 34.5417 64.3995 34.454C64.3656 34.3663 64.3134 34.2868 64.2464 34.2209C64.1006 34.0867 63.9312 33.9808 63.7467 33.9086L63.2826 33.7123C63.0123 33.6402 62.772 33.4835 62.597 33.2652C62.4221 33.0468 62.3215 32.7783 62.31 32.4987C62.3089 32.3323 62.3416 32.1675 62.406 32.0141C62.4704 31.8608 62.5653 31.722 62.6848 31.6063C62.8224 31.4795 62.9843 31.3817 63.1606 31.3188C63.3369 31.256 63.5241 31.2293 63.711 31.2405C64.0607 31.2258 64.4037 31.3401 64.6747 31.5617C64.8235 31.6827 64.9477 31.8311 65.0406 31.999V31.9633ZM54.3324 36.0324H53.6274V30.9549L57.1165 34.5957V31.2762H57.8482V36.3625L54.3234 32.7218L54.3324 36.0324ZM45.4981 34.9437C45.6629 35.1113 45.8605 35.2429 46.0785 35.3305C46.2966 35.418 46.5304 35.4595 46.7653 35.4523C47.0015 35.4597 47.2367 35.4183 47.4562 35.3308C47.6757 35.2433 47.8749 35.1115 48.0413 34.9437C48.3582 34.5837 48.5329 34.1205 48.5329 33.6409C48.5329 33.1613 48.3582 32.6981 48.0413 32.3381C47.8749 32.1703 47.6757 32.0385 47.4562 31.951C47.2367 31.8635 47.0015 31.8221 46.7653 31.8294C46.5304 31.8223 46.2966 31.8638 46.0785 31.9513C45.8605 32.0388 45.6629 32.1705 45.4981 32.3381C45.1813 32.6981 45.0065 33.1613 45.0065 33.6409C45.0065 34.1205 45.1813 34.5837 45.4981 34.9437ZM44.9806 31.8651C45.3932 31.4342 45.943 31.1603 46.5355 31.0904C47.1281 31.0205 47.7265 31.1589 48.2281 31.482C48.7297 31.805 49.1033 32.2926 49.2848 32.8609C49.4663 33.4293 49.4444 34.0431 49.2228 34.5971C49.0012 35.1511 48.5938 35.6107 48.0703 35.8971C47.5469 36.1836 46.9402 36.2789 46.3541 36.1669C45.7681 36.0549 45.2393 35.7425 44.8584 35.2832C44.4775 34.8239 44.2683 34.2465 44.2667 33.6498C44.261 33.3259 44.3206 33.0042 44.4417 32.7038C44.5627 32.4033 44.743 32.1303 44.9716 31.9008L44.9806 31.8651ZM40.1797 31.4992V32.3916C39.83 32.0529 39.3637 31.8612 38.8769 31.8562C38.641 31.8474 38.406 31.889 38.1875 31.9783C37.969 32.0675 37.772 32.2023 37.6098 32.3737C37.2819 32.73 37.1086 33.2017 37.1279 33.6855C37.1199 33.921 37.1602 34.1557 37.2461 34.3751C37.332 34.5945 37.4618 34.7941 37.6276 34.9616C37.7889 35.1318 37.9844 35.266 38.2012 35.3552C38.4181 35.4444 38.6514 35.4866 38.8858 35.4791C39.3732 35.4726 39.8383 35.2738 40.1797 34.9259V35.8182C39.7811 36.0573 39.3238 36.1809 38.859 36.1752C38.5342 36.1787 38.2119 36.1175 37.911 35.9951C37.6101 35.8727 37.3366 35.6916 37.1064 35.4623C36.8763 35.233 36.6942 34.9601 36.5707 34.6597C36.4472 34.3592 36.3848 34.0371 36.3872 33.7123C36.375 33.3626 36.438 33.0143 36.5719 32.691C36.7058 32.3677 36.9076 32.0769 37.1636 31.8383C37.3969 31.6255 37.6699 31.4607 37.9669 31.3535C38.264 31.2463 38.5793 31.1988 38.8947 31.2137C39.3423 31.1943 39.7858 31.306 40.1708 31.5349L40.1797 31.4992Z" fill="#333657"/>
</svg>
